<svg xmlns="http://www.w3.org/2000/svg" height="512" width="512" xmlns:v="https://vecta.io/nano"><path d="M35 35h442v442H35z" fill="#d0021b" stroke="#fff" stroke-width="35"/><path d="M74.5 36A38.5 38.5 0 0 0 36 74.5v363A38.5 38.5 0 0 0 74.5 476h363a38.5 38.5 0 0 0 38.5-38.5v-363A38.5 38.5 0 0 0 437.5 36h-363zm48.97 36.03A50 50 0 1 1 72 122a50 50 0 0 1 51.47-49.97zm268 0A50 50 0 1 1 340 122a50 50 0 0 1 51.47-49.97zM256 206a50 50 0 0 1 0 100 50 50 0 0 1 0-100zM123.47 340.03A50 50 0 1 1 72 390a50 50 0 0 1 51.47-49.97zm268 0A50 50 0 1 1 340 390a50 50 0 0 1 51.47-49.97z" fill="#fff"/></svg>